<svg xmlns="http://www.w3.org/2000/svg" width="16.286" height="19" viewBox="0 0 16.286 19"><defs><style>.a{fill:#fff;}</style></defs><g transform="translate(-13 -12)"><path class="a" d="M16.529,22v1.629h1.629V22ZM24.4,36.475a.182.182,0,0,1-.182.182H14.81a.182.182,0,0,1-.182-.182V23.81a.182.182,0,0,1,.182-.182h.361V22H14.8A1.8,1.8,0,0,0,13,23.8V36.486a1.8,1.8,0,0,0,1.8,1.8h9.37a1.8,1.8,0,0,0,1.8-1.8v-.1H24.4Zm0-3.075v1.629h1.569V33.4Z" transform="translate(0 -7.286)"/><path class="a" d="M36.314,27.743H28.443A2.443,2.443,0,0,1,26,25.3V14.443A2.443,2.443,0,0,1,28.443,12h7.871a2.443,2.443,0,0,1,2.443,2.443V25.3A2.443,2.443,0,0,1,36.314,27.743ZM28.443,13.629a.814.814,0,0,0-.814.814V25.3a.814.814,0,0,0,.814.814h7.871a.814.814,0,0,0,.814-.814V14.443a.814.814,0,0,0-.814-.814Z" transform="translate(-9.471)"/></g></svg>