<svg xmlns="http://www.w3.org/2000/svg" width="15.502" height="18.486" viewBox="0 0 15.502 18.486"><defs><style>.a{fill:#fff;}</style></defs><g transform="translate(-9.409 -7.039)"><path class="a" d="M20.639,34.86a3.279,3.279,0,0,0-4.638,0l-.951.951a.565.565,0,0,0,0,.8h0a.565.565,0,0,0,.8,0l.405-.405a2.432,2.432,0,0,1,3.389-.351,2.438,2.438,0,0,1-.351,3.389l-4.542,4.542a2.432,2.432,0,0,1-3.389.351,2.432,2.432,0,0,1,.351-3.387l.836-.836a.569.569,0,0,0,0-.8h0a.569.569,0,0,0-.8,0L10.37,40.5a3.279,3.279,0,0,0,4.638,4.638l5.622-5.622a3.279,3.279,0,0,0,.009-4.652Z" transform="translate(0 -20.568)"/><path class="a" d="M34.789,8a3.279,3.279,0,0,0-4.638,0l-5.622,5.622a3.281,3.281,0,0,0,4.628,4.652l1.028-1.028a.565.565,0,0,0,0-.8h0a.565.565,0,0,0-.8,0l-.483.483a2.432,2.432,0,0,1-3.389.351,2.438,2.438,0,0,1,.351-3.389l4.542-4.542A2.432,2.432,0,0,1,33.8,9a2.431,2.431,0,0,1-.351,3.387l-.759.759a.565.565,0,0,0,0,.8h0a.569.569,0,0,0,.8,0l1.3-1.3A3.279,3.279,0,0,0,34.789,8Z" transform="translate(-10.838)"/></g></svg>