<svg xmlns="http://www.w3.org/2000/svg" width="16.286" height="19.292" viewBox="0 0 16.286 19.292"><defs><style>.a{fill:#fff;}</style></defs><g transform="translate(-12 -10)"><path class="a" d="M15.483,22v1.608h1.608V22Zm7.77,14.289a.18.18,0,0,1-.18.18H13.787a.18.18,0,0,1-.18-.18v-12.5a.18.18,0,0,1,.18-.18h.356V22h-.367A1.776,1.776,0,0,0,12,23.776V36.3a1.776,1.776,0,0,0,1.776,1.776h9.249A1.776,1.776,0,0,0,24.8,36.3v-.1H23.254Zm0-3.036v1.608H24.8V33.254Z" transform="translate(0 -8.785)"/><path class="a" d="M37.762,14.823,33.038,10H26.776A1.776,1.776,0,0,0,25,11.776V24.3a1.776,1.776,0,0,0,1.776,1.776h9.249A1.776,1.776,0,0,0,37.8,24.3V14.823Zm-1.509,9.466a.18.18,0,0,1-.18.18H26.787a.18.18,0,0,1-.18-.18v-12.5a.18.18,0,0,1,.18-.18h6.251V13.54a1.281,1.281,0,0,0,1.283,1.283h1.932Z" transform="translate(-9.517 0)"/></g></svg>