<svg xmlns="http://www.w3.org/2000/svg" width="11.857" height="19.117" viewBox="0 0 11.857 19.117"><defs><style>.a{fill:#fff;}</style></defs><g transform="translate(-18 -7)"><path class="a" d="M27.68,26.117h-7.5A2.178,2.178,0,0,1,18,23.939V9.178A2.178,2.178,0,0,1,20.178,7h7.5a2.178,2.178,0,0,1,2.178,2.178V23.939A2.178,2.178,0,0,1,27.68,26.117Zm-7.5-17.665a.726.726,0,0,0-.726.726V23.939a.726.726,0,0,0,.726.726h7.5a.726.726,0,0,0,.726-.726V9.178a.726.726,0,0,0-.726-.726Z"/><rect class="a" width="5.445" height="0.818" rx="0.409" transform="translate(21.267 22.395)"/></g></svg>