<svg xmlns="http://www.w3.org/2000/svg" width="16.566" height="16.566" viewBox="0 0 16.566 16.566"><defs><style>.a{fill:#fff;}</style></defs><g transform="translate(-73.28 -82.59)"><path class="a" d="M110.66,82.59h.662v1.326h1.326v.662H110.66Z" transform="translate(-32.079)"/><rect class="a" width="1.325" height="0.662" transform="translate(79.906 82.59)"/><rect class="a" width="0.662" height="0.662" transform="translate(82.556 82.59)"/><rect class="a" width="0.662" height="0.662" transform="translate(83.883 82.59)"/><path class="a" d="M73.28,82.59v4.639h4.639V82.59Zm3.977,3.977H73.944V83.254h3.313Z"/><rect class="a" width="0.662" height="0.662" transform="translate(81.894 83.254)"/><path class="a" d="M157.38,82.59v4.639h4.639V82.59Zm3.975,3.977h-3.313V83.254h3.313Z" transform="translate(-72.173)"/><rect class="a" width="1.988" height="1.988" transform="translate(74.606 83.916)"/><path class="a" d="M121.326,91.94h.662v1.325h1.326v1.988h-.664v-.662h-.662v-.662H120v-.664h1.326Z" transform="translate(-40.094 -8.024)"/><rect class="a" width="1.326" height="0.662" transform="translate(83.22 83.916)"/><rect class="a" width="1.988" height="1.988" transform="translate(86.533 83.916)"/><path class="a" d="M110.66,105.96h1.325v.662h-.662v.662h.662v.662h.664v.662h.662v.662h-.662V110.6h-.664v.662h-.662v.662h-.662V110.6h.662v-1.988h-.662Z" transform="translate(-32.079 -20.056)"/><rect class="a" width="0.662" height="0.662" transform="translate(79.906 86.567)"/><rect class="a" width="0.662" height="1.325" transform="translate(81.232 86.567)"/><rect class="a" width="0.662" height="0.662" transform="translate(83.883 86.567)"/><path class="a" d="M139.354,115.3h.662v1.325h.662v.662h.662v1.326H142v.662h-1.326v-1.325h-.662v1.325h.662v.662H138.69v-.662h.664v-1.325h-.664v-.664h.664Z" transform="translate(-56.134 -28.071)"/><path class="a" d="M82.63,119.97h1.988v1.988h-.664v-1.326H82.63Z" transform="translate(-8.024 -32.079)"/><rect class="a" width="0.662" height="0.662" transform="translate(77.257 87.891)"/><path class="a" d="M152.71,119.97H154.7v1.988h-.662v-1.326H152.71Z" transform="translate(-68.165 -32.079)"/><path class="a" d="M176.07,119.97h1.988v.662h-.664v.662h.664v1.988h-.664v-1.325h-.662v-1.326h-.662Z" transform="translate(-88.212 -32.079)"/><rect class="a" width="0.662" height="0.662" transform="translate(77.919 88.554)"/><rect class="a" width="0.662" height="1.325" transform="translate(87.195 88.554)"/><rect class="a" width="0.662" height="0.662" transform="translate(73.944 89.216)"/><rect class="a" width="0.662" height="0.662" transform="translate(77.257 89.216)"/><rect class="a" width="0.662" height="0.662" transform="translate(81.232 89.216)"/><rect class="a" width="0.662" height="0.662" transform="translate(74.606 89.88)"/><path class="a" d="M92.634,133.99H93.3v.662h.662v.662H91.97v-.662h.664Z" transform="translate(-16.039 -44.11)"/><rect class="a" width="0.662" height="0.662" transform="translate(77.919 89.88)"/><path class="a" d="M166.73,133.99h.662v.662h1.325v.662h.662v.662h.664v3.314h-.664v.662h-.662v-1.326h.662V137.3h-.662v-1.326h-.662v-.662H166.73Z" transform="translate(-80.197 -44.11)"/><path class="a" d="M117.318,138.66h1.325v.662h-.662v1.326h-1.988v.662h-.662v-1.326h1.326v-.662h.662Z" transform="translate(-36.086 -48.118)"/><rect class="a" width="0.662" height="2.651" transform="translate(73.28 91.204)"/><path class="a" d="M87.3,143.33h.662v.662h.664v.664h.662v.662h-.662v.662h-.664v-1.325H87.3Z" transform="translate(-12.032 -52.126)"/><rect class="a" width="0.662" height="0.662" transform="translate(85.871 91.204)"/><rect class="a" width="0.662" height="0.662" transform="translate(77.257 91.866)"/><rect class="a" width="0.662" height="0.662" transform="translate(84.545 91.866)"/><rect class="a" width="0.662" height="0.662" transform="translate(87.195 91.866)"/><rect class="a" width="0.662" height="1.326" transform="translate(74.606 92.53)"/><path class="a" d="M101.982,152.68h.662V154H101.32v-.662h.662Z" transform="translate(-24.063 -60.15)"/><rect class="a" width="0.662" height="1.326" transform="translate(81.894 92.53)"/><rect class="a" width="0.662" height="0.662" transform="translate(79.906 93.193)"/><rect class="a" width="0.662" height="0.662" transform="translate(78.581 93.855)"/><path class="a" d="M144.662,154.667v-1.325h-1.988v-.662h-.662v.662h-1.325v-.662h-.662v1.988h-.662v.664H138.7v.662h.662v.662h1.988v1.325h.664v.662h.662v-1.325H144v-.662h.664v-.662H143.34V154.67h1.322Zm-1.987,1.326h-1.987v-1.987h1.987Z" transform="translate(-56.142 -60.15)"/><rect class="a" width="0.662" height="0.664" transform="translate(79.906 94.517)"/><path class="a" d="M129.35,166.69h1.325v.664h-.662v.662h-.662Z" transform="translate(-48.118 -72.173)"/><rect class="a" width="0.664" height="0.664" transform="translate(85.207 94.517)"/><path class="a" d="M73.28,166.69v4.639h4.639V166.69Zm3.977,3.975H73.944v-3.313h3.313Z" transform="translate(0 -72.173)"/><rect class="a" width="1.988" height="1.988" transform="translate(74.606 95.843)"/><path class="a" d="M110.66,176.04h1.325v.662h-.662v1.325h-.662Z" transform="translate(-32.079 -80.197)"/><rect class="a" width="0.662" height="0.662" transform="translate(80.57 95.843)"/><path class="a" d="M134.02,176.04h.662v.662h.664v.662h-.664v.662h-.662Z" transform="translate(-52.126 -80.197)"/><rect class="a" width="0.662" height="1.325" transform="translate(79.906 96.505)"/><path class="a" d="M173.387,180.71h.664v2.651H171.4V182.7h1.987Z" transform="translate(-84.205 -84.205)"/><rect class="a" width="0.662" height="1.325" transform="translate(83.22 97.168)"/><rect class="a" width="0.664" height="0.664" transform="translate(87.858 97.168)"/><rect class="a" width="0.662" height="0.662" transform="translate(84.545 97.83)"/><rect class="a" width="1.988" height="0.662" transform="translate(79.906 98.492)"/><rect class="a" width="0.662" height="0.662" transform="translate(82.556 98.492)"/><rect class="a" width="0.662" height="0.662" transform="translate(83.883 98.492)"/></g></svg>